<?xml version="1.0" encoding="utf-8"?>
<!-- Generator: Adobe Illustrator 24.1.1, SVG Export Plug-In . SVG Version: 6.00 Build 0)  -->
<svg version="1.1" id="Capa_1" xmlns="http://www.w3.org/2000/svg" xmlns:xlink="http://www.w3.org/1999/xlink" x="0px" y="0px"
	 viewBox="0 0 1366 768" style="enable-background:new 0 0 1366 768;" xml:space="preserve">
<style type="text/css">
	.st0{display:none;}
	.st1{fill:#00AA86;stroke:#1D1D1B;stroke-width:21;stroke-miterlimit:10;}
	.st2{fill:none;stroke:#000000;stroke-width:15;stroke-miterlimit:10;}
	.st3{fill:none;stroke:#000000;stroke-width:18;stroke-miterlimit:10;}
	.st4{fill:none;stroke:#000000;stroke-width:14;stroke-miterlimit:10;}
	.st5{fill:none;stroke:#006837;stroke-width:15;stroke-miterlimit:10;}
	.st6{fill:none;stroke:#006837;stroke-width:14;stroke-miterlimit:10;}
	.st7{fill:none;stroke:#006837;stroke-width:10;stroke-miterlimit:10;}
	.st8{fill:none;stroke:#000000;stroke-width:10;stroke-miterlimit:10;}
</style>
<g id="Capa_1_1_" class="st0">
</g>
<ellipse class="st1" cx="649.7" cy="327.9" rx="567.7" ry="505.5"/>
<g>
	<path class="st2" d="M589.1,210.4c0.1,0.2,8-1.5,16-7.6c4.4-3.4,6.8-6.6,11.3-12.5c7.3-9.7,7.9-13.7,14.4-18.7
		c0.8-0.6,0.5-0.3,6.3-4.6c7.6-5.5,9.5-7,9.6-6.9c0.3,0.3-8.9,8.4-12.9,11.9c-10.3,9-10.2,8.5-12.7,11.1c-8,8.4-6.7,11.1-13,16.9
		C599.3,208.5,589,210.3,589.1,210.4z"/>
	<g>
		<path class="st3" d="M668.3,567.2c-6.7,2.1-16.2,4.8-27.7,6.8c-29.2,5.1-51.8,2.8-58.8,2c-13.3-1.6-22.1-2.6-33.5-7.1
			c0,0-15.3-6.1-41.6-25.3c0,0-15.7,4.2-17.6,4.7c-10,2.6-30.9,5-52.1-2c0,0-25-8.3-44.6-30.4c-2.6-2.9-8-9.5-16.9-17.6
			c-6.2-5.7-8.7-7.2-13.5-11.5c0,0-11-9.8-20.3-23c-15.3-21.8-19.2-46.9-20.3-56.8c-2.8-25.5,2.9-45.1,6.8-58.1
			c1.7-5.8,6.6-20.9,16.9-38.5c2.2-3.8,13.3-22.4,33.8-41.9c11.9-11.3,30.8-29.3,54.8-37.9c3.3-1.2,9.8-3.3,17.6-8.1
			c11.2-6.9,17.1-14.6,21.6-19.6c13.2-14.8,27.7-22.8,39.2-29.1c20.6-11.4,38.7-14.9,55.4-18.3c20.7-4.1,33.8-3.8,40.6-3.4
			c6.1,0.4,10.6,0.7,16.6,2.1c12,2.8,14.5,6.3,21.9,6c7.2-0.3,9.1-3.7,18.3-7.4c7.8-3.2,14.5-3.7,27.7-4.7
			c17.2-1.3,30.2-2.3,47.3,1.4c7.1,1.5,22.2,4.8,38.5,14.9c9.2,5.7,19,11.7,28.7,22.7c4.9,5.6,7.8,10.1,14.6,13.1
			c7.3,3.3,11.1,1.3,20.3,2.8c10.1,1.6,16.8,5.7,26.4,11.5c12.7,7.7,20.5,16.1,26.4,22.3c4.6,5,14.4,16.1,23,32.4
			c0.8,1.6,4.9,9.3,8.8,20.1c1.8,4.8,4.5,12.4,6.7,22.5c1.4,6.8,1,7,2,10.1c3.3,9.9,10.6,15.6,13.5,18.3c10.2,9.1,13.8,22,18.2,37.9
			c7.9,28.3,1,52.8-3.4,68.3c-3,10.6-6.7,23.1-16.9,35.8c-5.5,6.8-10.3,12.9-19,17.5c-7.7,4.1-12.1,3.7-16.8,8.9
			c-4.2,4.6-4,8.6-6.8,17.6c0,0-4,13.3-12.2,26.4c-7.4,11.8-16,19.6-21,23.7c-11.1,9-16.7,13.5-25.7,15.5c-3.5,0.8-8,1.4-9.1,4.2
			c-1,2.8,2.1,5.6,5.7,10.6c1.8,2.5,2.6,3.6,11.5,26.4c12.1,30.8,13,33.9,17.2,41.1c5.3,9,7.9,13.5,12.7,17.2
			c18.5,14.5,46.5,4.7,46.5,5.2c0.1,0.5-39.6,15-73.6-1.2c-6.4-3.1-15.5-8.6-23.8-14.7c-8.7-6.4-15.1-12.4-23-19.8
			c-11-10.4-12.5-11.5-19.6-19.6c-3.9-4.4-13.8-12-33.8-27c-15.8-12-9.6-6.7-34.5-25c-14-10.3-19.2-14.3-28.4-17.6
			C683.3,567.8,674.4,567.2,668.3,567.2z"/>
		<path class="st4" d="M371.5,488.6c-0.5,0-8.4-30.7,6-45.3c8.1-8.2,21.2-9.1,21.3-9c0,0.1-6.1,1.3-12.7,6.1
			c-2.4,1.7-8.5,6.4-11.7,14.5c-0.6,1.5-1.1,3.3-2,15.7C371.3,485.1,371.6,488.6,371.5,488.6z"/>
		<path class="st2" d="M512.4,543.5c-1-2.2,1.2-5,3.5-8c3.3-4.4,6.3-8.9,9.6-13.2c0,0,5.7-7.3,9.4-16.5c6.4-16.1,0.2-31.3,0.8-31.4
			c0.7-0.1,12,23.5,2,40.8c-4.8,8.3-10.9,9-13.7,18.5c-3.1,10.5,1.1,21.4-0.2,21.7c-0.9,0.2-1.6-5.8-6.7-9
			C514.7,544.9,513.1,545,512.4,543.5z"/>
		<path class="st4" d="M635.7,535.6c0.1-0.5,8.2-2,16.4,1.5c6.3,2.7,6.8,5.9,15.7,10.7c3.1,1.7,5.7,2.7,9.5,4.2
			c12,4.7,14.5,5.3,16.4,8.5c2.2,3.8,2,9.3-0.3,10.8c-1.5,1-2.7-0.5-9.4-2.6c-6.3-2-8.8-1.7-11.1-4.3c-1.2-1.3-1.2-1.9-2.2-4.4
			c-1.3-3.3-3.5-5.5-7.8-9.8c-5.1-5.1-7.8-7.8-12-10.1C642.9,535.7,635.6,536.1,635.7,535.6z"/>
		<path class="st2" d="M841.9,592.4c-1-4.4-4.5-6.5-12.2-11.8c-13-9-19.5-13.5-21.6-14.5c-12.3-6.3-24-9.3-24.2-9
			c-0.1,0.2,2.5,1.2,8.1,3.9c7.5,3.6,13.6,6.5,19.8,10.7c5.6,3.7,11,7.3,15.9,13.7c7.5,9.8,7.7,18.3,10.5,18.1
			C840.5,603.2,843,597.4,841.9,592.4z"/>
		<path class="st2" d="M921.3,498.6c0-3.5-4.7-4.2-9.1-9.3c-7.3-8.3-8-18.8-8.1-20.8c-0.5-8.3,2.2-14.9,1.7-15
			c-0.3-0.1-2,3.5-2.9,7.9c-1.3,6.8,0.3,12.6,3.5,24c0.2,0.7,1.4,4.9,3.7,10.1c3.6,8.2,5.3,8.5,5.9,8.6
			C918.4,504.3,921.3,501.4,921.3,498.6z"/>
		<path class="st2" d="M931.7,304.8c-4.9-6-16.4-3.5-21.8-2.3c-19.3,4.1-33.1,16.4-32.7,17c0.2,0.3,3.5-2.1,12.2-5.8
			c9.2-3.9,13.8-5.9,18.8-6.3c13.6-1.3,22.8,7.5,25.3,4.4C934.5,310.2,933.3,306.8,931.7,304.8z"/>
		<path class="st2" d="M817.3,199c-1.1,0.5,11.2,17,6.6,34.7c-1.5,5.8-4,8.6-2.5,13.2c2.7,8.5,15.7,11.5,15.5,11.9
			c-0.1,0.3-4.3-1-8.5-3.8c-2.8-2-5.2-3.6-6.4-6.7c-1.1-2.8-0.8-5.4-0.6-6.5c0.3-2.4,1-3.4,1.9-5.6c1.4-3.6,1.5-6.6,1.8-11.1
			c0.1-2.5,0.3-6-0.5-10.4C822.7,205.8,818,198.7,817.3,199z"/>
		<path class="st2" d="M448.2,236.8c-1.4,5.6-1.4,8.2-1.3,9.6c0.3,5.3,2.4,9.7,2.8,9.6c0.5-0.1-1.8-6.1-1.5-14.2
			c0.4-11.4,5.5-19.4,5.3-19.5C453.3,222.3,450.2,228.4,448.2,236.8z"/>
		<path class="st5" d="M408.4,335.2c-0.5,0-4.1,14.2-3,31.9c0.5,8.1,2.5,35,22.3,59.8c3.7,4.6,14.9,17.7,33.2,26.9
			c5.5,2.7,12.6,5.6,12.9,5c0.4-0.7-10.3-6-21.9-14.2c-13.8-9.6-25.7-18-33.8-32.2c-6.9-12-8-23.2-9.7-38.8
			C406,351.6,408.8,335.2,408.4,335.2z"/>
		<path class="st5" d="M706.5,536c0,1.2,29.7,11,51.7-3.5c24-15.9,25.2-51.6,24.8-51.7c-0.3-0.1-1.5,29-22.3,45.1
			C738.3,543.2,706.5,534.8,706.5,536z"/>
		<path class="st5" d="M592.6,444.5c0-0.3,14.7,2.1,35.8,1.3c33.8-1.2,44.3-9.1,75.4-14.5c44.9-7.8,82.3-1.6,82.3-1.4
			c0,0.1-15,0.3-23.5,0.3c-16.5,0.1-15.6-0.3-21.6,0c-9.9,0.4-17.5,1.6-32.8,4.1c-10.9,1.7-19.1,3.3-21.3,3.7
			c-19.1,3.7-26.7,6.1-34.8,7.8C620.5,452.4,592.5,445,592.6,444.5z"/>
		<path class="st6" d="M827.5,503.3c-0.5-0.2,10.6-20.6,2.7-39.5c-4-9.6-11.6-15.7-16.6-19.6c-14-11.1-27.8-13.5-27.5-14.2
			c0.2-0.6,12.6,0.5,24.9,8.2c4.4,2.8,18.3,11.5,23,28C839.4,485.9,828,503.5,827.5,503.3z"/>
		<path class="st5" d="M616.2,366.6c-0.2,0.1-5.2-28-28.9-51.2c-28.3-27.6-65.3-30.6-64.9-31.9c0.3-1.1,28.5-0.8,53.2,17.2
			C608.8,324.9,616.5,366.5,616.2,366.6z"/>
		<path class="st6" d="M590.4,304.3c-0.3-0.5,23.2-21.2,59.3-32.5c12.5-3.9,37.2-11.3,66.9-6.6c42.3,6.7,70.7,34.2,71.5,33
			c0.5-0.8-11.3-10.8-26.9-18.3c-4.8-2.3-15.7-7.2-31.9-10.1c-42-7.7-79.2,4.6-90.3,8.6C608.6,289.4,590.6,304.7,590.4,304.3z"/>
		<path class="st6" d="M709.6,264.3c-0.3-0.9,13.7-3.2,22.2-14.8c7.6-10.4,9.5-26.4,3-32.4c-2.2-2.1-5.3-2.9-5.6-2.5
			c-0.4,0.6,5.1,3.4,8.3,9.1c3.2,5.7,2.6,11.6,2.4,13.7c-1.2,11.7-10.5,18.5-13.1,20.4C718.9,263.7,709.9,265,709.6,264.3z"/>
		<path class="st6" d="M790,425.9c-0.5-0.1-0.4-20,11.5-38.5c20.1-31.4,61.2-39.3,61.5-38.5c0.2,0.5-15,5.9-35.9,21.5
			c-8.7,6.5-13.6,10.1-18.9,16.4C792.6,405.2,790.5,426.1,790,425.9z"/>
	</g>
	<path class="st7" d="M676.5,125.1c-3.3,0.1-8.6-43.8-10.1-82.6c-1.4-36.7,0.5-71.8,2.3-71.9c2.1-0.1,4.7,42.9,5.1,51.2
		c0.5,9.2,0.6,13.1,0.6,13.1c0.3,10.4,0,13.9,1.1,24.4c1.3,12.4,3.3,23.7,3.8,27.5C682.1,105.2,678.7,125.1,676.5,125.1z"/>
	<path class="st8" d="M893.8,199.6c0.4,0.6,37.1-15.5,63.6-50.9c23.2-31.1,28.6-63.4,28.1-63.6c-0.4-0.2-6.3,18.8-22.4,41.2
		c-3.2,4.5-6.2,8.2-8.5,11c-6.6,8.8-8.5,12-15.9,20.4c-2.7,3.1-10.5,12-20.4,21.4C903.8,192.8,893.6,199.3,893.8,199.6z"/>
	<path class="st8" d="M398.6,193.5c-0.4,0.6-38.7-10.7-69.4-42.6c-26.9-27.9-36.2-59.4-35.8-59.7c0.4-0.2,8.6,17.9,27.3,38.1
		c3.7,4,7.1,7.3,9.8,9.9c7.6,7.9,9.9,10.8,18.3,18.3c3.1,2.7,11.9,10.6,22.9,18.7C387.8,188,398.7,193.1,398.6,193.5z"/>
	<path class="st7" d="M1000.3,374c0.1,0.7,39.8,5.6,80.7-11.3c35.8-14.8,56.9-40,56.6-40.4c-0.2-0.3-15,12.9-40.3,24
		c-5.1,2.2-9.5,3.9-13,5.1c-10.2,4.2-13.4,6-24.1,9.4c-3.9,1.3-15.2,5-28.4,8C1012.4,373.3,1000.3,373.6,1000.3,374z"/>
	<path class="st7" d="M282.7,358c-0.2,0.7-40.1-2.1-77-26.6c-32.3-21.4-48.2-50.1-47.9-50.5c0.3-0.3,12.3,15.6,34.9,31.3
		c4.5,3.1,8.6,5.6,11.7,7.5c9.2,6,12,8.4,21.8,13.9c3.6,2,13.9,7.8,26.4,13.3C271,354.9,282.8,357.6,282.7,358z"/>
</g>
</svg>
