<?xml version="1.0" encoding="utf-8"?>
<!-- Generator: Adobe Illustrator 24.1.1, SVG Export Plug-In . SVG Version: 6.00 Build 0)  -->
<svg version="1.1" id="Capa_1" xmlns="http://www.w3.org/2000/svg" xmlns:xlink="http://www.w3.org/1999/xlink" x="0px" y="0px"
	 viewBox="0 0 1366 768" style="enable-background:new 0 0 1366 768;" xml:space="preserve">
<style type="text/css">
	.st0{display:none;}
	.st1{fill:none;}
	.st2{fill:none;stroke:#000000;stroke-width:15;stroke-miterlimit:10;}
	.st3{fill:none;stroke:#000000;stroke-width:18;stroke-miterlimit:10;}
	.st4{fill:none;stroke:#000000;stroke-width:14;stroke-miterlimit:10;}
	.st5{fill:none;stroke:#006837;stroke-width:15;stroke-miterlimit:10;}
	.st6{fill:none;stroke:#006837;stroke-width:14;stroke-miterlimit:10;}
	.st7{fill:none;stroke:#006837;stroke-width:10;stroke-miterlimit:10;}
	.st8{fill:none;stroke:#000000;stroke-width:10;stroke-miterlimit:10;}
</style>
<g id="Capa_1_1_" class="st0">
</g>
<path class="st1" d="M123.7,741.5c0,5.8-1.8,10.3-5.5,13.6c-0.2,0.2-0.3,0.3-0.5,0.5c0.5-0.9,0.9-1.8,1.2-2.9
	c0.4-1.9,0.6-4.7,0.6-8.6v-16.2c1,1.2,1.8,2.7,2.5,4.4C123.2,735.2,123.7,738.2,123.7,741.5z"/>
<path class="st1" d="M144.9,760.6v1.3H108c5.8,0,10.4-0.3,13.6-0.9c3.2-0.6,6-1.7,8.3-3.2c1.4-1,2.7-2.1,3.8-3.5
	c0.5,1.2,1.1,2.2,2,3c1.1,1.1,2.3,1.8,3.7,2.4C140.8,760.2,142.6,760.5,144.9,760.6z"/>
<g>
	<path class="st2" d="M538.9,241.1c0.1,0.2,8-1.5,16-7.6c4.4-3.4,6.8-6.6,11.3-12.5c7.3-9.7,7.9-13.7,14.4-18.7
		c0.8-0.6,0.5-0.3,6.3-4.6c7.6-5.5,9.5-7,9.6-6.9c0.3,0.3-8.9,8.4-12.9,11.9c-10.3,9-10.2,8.5-12.7,11.1c-8,8.4-6.7,11.1-13,16.9
		C549.1,239.2,538.9,240.9,538.9,241.1z"/>
	<g>
		<path class="st3" d="M618.1,597.9c-6.7,2.1-16.2,4.8-27.7,6.8c-29.2,5.1-51.8,2.8-58.8,2c-13.3-1.6-22.1-2.6-33.5-7.1
			c0,0-15.3-6.1-41.6-25.3c0,0-15.7,4.2-17.6,4.7c-10,2.6-30.9,5-52.1-2c0,0-25-8.3-44.6-30.4c-2.6-2.9-8-9.5-16.9-17.6
			c-6.2-5.7-8.7-7.2-13.5-11.5c0,0-11-9.8-20.3-23c-15.3-21.8-19.2-46.9-20.3-56.8c-2.8-25.5,2.9-45.1,6.8-58.1
			c1.7-5.8,6.6-20.9,16.9-38.5c2.2-3.8,13.3-22.4,33.8-41.9c11.9-11.3,30.8-29.3,54.8-37.9c3.3-1.2,9.8-3.3,17.6-8.1
			c11.2-6.9,17.1-14.6,21.6-19.6c13.2-14.8,27.7-22.8,39.2-29.1c20.6-11.4,38.7-14.9,55.4-18.3c20.7-4.1,33.8-3.8,40.6-3.4
			c6.1,0.4,10.6,0.7,16.6,2.1c12,2.8,14.5,6.3,21.9,6c7.2-0.3,9.1-3.7,18.3-7.4c7.8-3.2,14.5-3.7,27.7-4.7
			c17.2-1.3,30.2-2.3,47.3,1.4c7.1,1.5,22.2,4.8,38.5,14.9c9.2,5.7,19,11.7,28.7,22.7c4.9,5.6,7.8,10.1,14.6,13.1
			c7.3,3.3,11.1,1.3,20.3,2.8c10.1,1.6,16.8,5.7,26.4,11.5c12.7,7.7,20.5,16.1,26.4,22.3c4.6,5,14.4,16.1,23,32.5
			c0.8,1.6,4.9,9.3,8.8,20.1c1.8,4.8,4.5,12.4,6.7,22.5c1.4,6.8,1,7,2,10.1c3.3,9.9,10.6,15.6,13.5,18.3c10.2,9.1,13.8,22,18.2,37.9
			c7.9,28.3,1,52.8-3.4,68.3c-3,10.6-6.7,23.1-16.9,35.8c-5.5,6.8-10.3,12.9-19,17.5c-7.7,4.1-12.1,3.7-16.8,8.9
			c-4.2,4.6-4,8.6-6.8,17.6c0,0-4,13.3-12.2,26.4c-7.4,11.8-16,19.6-21,23.7c-11.1,9-16.7,13.5-25.7,15.5c-3.5,0.8-8,1.4-9.1,4.2
			c-1,2.8,2.1,5.6,5.7,10.6c1.8,2.5,2.6,3.6,11.5,26.4c12.1,30.8,13,33.9,17.2,41.1c5.3,9,7.9,13.5,12.7,17.2
			c18.5,14.5,46.5,4.7,46.5,5.2c0.1,0.5-39.6,15-73.6-1.2c-6.4-3.1-15.5-8.6-23.8-14.7c-8.7-6.4-15.1-12.4-23-19.8
			c-11-10.4-12.5-11.5-19.6-19.6c-3.9-4.4-13.8-12-33.8-27c-15.8-12-9.6-6.7-34.5-25c-14-10.3-19.2-14.3-28.4-17.6
			C633.2,598.4,624.2,597.8,618.1,597.9z"/>
		<path class="st4" d="M321.3,519.2c-0.5,0-8.4-30.7,6-45.3c8.1-8.2,21.2-9.1,21.3-9c0,0.1-6.1,1.3-12.7,6.1
			c-2.4,1.7-8.5,6.4-11.7,14.5c-0.6,1.5-1.1,3.3-2,15.7C321.1,515.7,321.5,519.2,321.3,519.2z"/>
		<path class="st2" d="M462.2,574.1c-1-2.2,1.2-5,3.5-8c3.3-4.4,6.3-8.9,9.6-13.2c0,0,5.7-7.3,9.4-16.5c6.4-16.1,0.2-31.3,0.8-31.4
			c0.7-0.1,12,23.5,2,40.8c-4.8,8.3-10.9,9-13.7,18.5c-3.1,10.5,1.1,21.4-0.2,21.7c-0.9,0.2-1.6-5.8-6.7-9
			C464.6,575.5,462.9,575.7,462.2,574.1z"/>
		<path class="st4" d="M585.5,566.3c0.1-0.5,8.2-2,16.4,1.5c6.3,2.7,6.8,5.9,15.7,10.7c3.1,1.7,5.7,2.7,9.5,4.2
			c12,4.7,14.5,5.3,16.4,8.5c2.2,3.8,2,9.3-0.3,10.8c-1.5,1-2.7-0.5-9.4-2.6c-6.3-2-8.8-1.7-11.1-4.3c-1.2-1.3-1.2-1.9-2.2-4.4
			c-1.3-3.3-3.5-5.5-7.8-9.8c-5.1-5.1-7.8-7.8-12-10.1C592.7,566.3,585.4,566.7,585.5,566.3z"/>
		<path class="st2" d="M791.7,623c-1-4.4-4.5-6.5-12.2-11.8c-13-9-19.5-13.5-21.6-14.5c-12.3-6.3-24-9.3-24.2-9
			c-0.1,0.2,2.5,1.2,8.1,3.9c7.5,3.6,13.6,6.5,19.8,10.7c5.6,3.7,11,7.3,15.9,13.7c7.5,9.8,7.7,18.3,10.5,18.1
			C790.3,633.9,792.8,628,791.7,623z"/>
		<path class="st2" d="M871.1,529.2c0-3.5-4.7-4.2-9.1-9.3c-7.3-8.3-8-18.8-8.1-20.8c-0.5-8.3,2.2-14.9,1.7-15
			c-0.3-0.1-2,3.5-2.9,7.9c-1.3,6.8,0.3,12.6,3.5,24c0.2,0.7,1.4,4.9,3.7,10.1c3.6,8.2,5.3,8.5,5.9,8.6
			C868.2,535,871.1,532,871.1,529.2z"/>
		<path class="st2" d="M881.5,335.4c-4.9-6-16.4-3.5-21.8-2.3c-19.3,4.1-33.1,16.4-32.7,17c0.2,0.3,3.5-2.1,12.2-5.8
			c9.2-3.9,13.8-5.9,18.8-6.3c13.6-1.3,22.8,7.5,25.3,4.4C884.4,340.8,883.1,337.4,881.5,335.4z"/>
		<path class="st2" d="M767.1,229.7c-1.1,0.5,11.2,17,6.6,34.7c-1.5,5.8-4,8.6-2.5,13.2c2.7,8.5,15.7,11.5,15.5,11.9
			c-0.1,0.3-4.3-1-8.5-3.8c-2.8-2-5.2-3.6-6.4-6.7c-1.1-2.8-0.8-5.4-0.6-6.5c0.3-2.4,1-3.4,1.9-5.6c1.4-3.6,1.5-6.6,1.8-11.1
			c0.1-2.5,0.3-6-0.5-10.4C772.6,236.5,767.8,229.4,767.1,229.7z"/>
		<path class="st2" d="M398,267.4c-1.4,5.6-1.4,8.2-1.3,9.6c0.3,5.3,2.4,9.7,2.8,9.6c0.5-0.1-1.8-6.1-1.5-14.2
			c0.4-11.4,5.5-19.4,5.3-19.5C403.1,252.9,400.1,259,398,267.4z"/>
		<path class="st5" d="M358.2,365.8c-0.5,0-4.1,14.2-3,31.9c0.5,8.1,2.5,35,22.3,59.8c3.7,4.6,14.9,17.7,33.2,26.9
			c5.5,2.7,12.6,5.6,12.9,5c0.4-0.7-10.3-6-21.9-14.2c-13.8-9.6-25.7-18-33.8-32.2c-6.9-12-8-23.2-9.7-38.8
			C355.9,382.2,358.7,365.8,358.2,365.8z"/>
		<path class="st5" d="M656.3,566.6c0,1.2,29.7,11,51.7-3.5c24-15.9,25.2-51.6,24.8-51.7c-0.3-0.1-1.5,29-22.3,45.1
			C688.1,573.8,656.3,565.4,656.3,566.6z"/>
		<path class="st5" d="M542.4,475.2c0-0.3,14.7,2.1,35.8,1.3c33.8-1.2,44.3-9.1,75.4-14.5c44.9-7.8,82.3-1.6,82.3-1.4
			c0,0.1-15,0.3-23.5,0.3c-16.5,0.1-15.6-0.3-21.6,0c-9.9,0.4-17.5,1.6-32.8,4.1c-10.9,1.7-19.1,3.3-21.3,3.7
			c-19.1,3.7-26.7,6.1-34.8,7.8C570.3,483,542.4,475.6,542.4,475.2z"/>
		<path class="st6" d="M777.3,534c-0.5-0.2,10.6-20.6,2.7-39.5c-4-9.6-11.6-15.7-16.6-19.6c-14-11.1-27.8-13.5-27.5-14.2
			c0.2-0.6,12.6,0.5,24.9,8.2c4.4,2.8,18.3,11.5,23,28C789.2,516.5,777.8,534.1,777.3,534z"/>
		<path class="st5" d="M566.1,397.2c-0.2,0.1-5.2-28-28.9-51.2c-28.3-27.6-65.3-30.6-64.9-31.9c0.3-1.1,28.5-0.8,53.2,17.2
			C558.6,355.5,566.3,397.1,566.1,397.2z"/>
		<path class="st6" d="M540.2,334.9c-0.3-0.5,23.2-21.2,59.3-32.5c12.5-3.9,37.2-11.3,66.9-6.6c42.3,6.7,70.7,34.2,71.5,33
			c0.5-0.8-11.3-10.8-26.9-18.3c-4.8-2.3-15.7-7.2-31.9-10.1c-42-7.7-79.2,4.6-90.3,8.6C558.4,320,540.5,335.3,540.2,334.9z"/>
		<path class="st6" d="M659.4,294.9c-0.3-0.9,13.7-3.2,22.2-14.8c7.6-10.4,9.5-26.4,3-32.4c-2.2-2.1-5.3-2.9-5.6-2.5
			c-0.4,0.6,5.1,3.4,8.3,9.1c3.2,5.7,2.6,11.6,2.4,13.7c-1.2,11.7-10.5,18.5-13.1,20.4C668.7,294.3,659.7,295.6,659.4,294.9z"/>
		<path class="st6" d="M739.8,456.6c-0.5-0.1-0.4-20,11.5-38.5c20.1-31.4,61.2-39.3,61.5-38.5c0.2,0.5-15,5.9-35.9,21.5
			c-8.7,6.5-13.6,10.1-18.9,16.4C742.4,435.8,740.3,456.7,739.8,456.6z"/>
	</g>
	<path class="st7" d="M626.3,155.8c-3.3,0.1-8.6-43.8-10.1-82.6c-1.4-36.6,0.5-71.8,2.3-71.9c2.1-0.1,4.7,42.9,5.1,51.2
		c0.5,9.2,0.6,13.1,0.6,13.1c0.3,10.4,0,13.9,1.1,24.4c1.3,12.4,3.3,23.7,3.8,27.5C631.9,135.9,628.5,155.7,626.3,155.8z"/>
	<path class="st8" d="M843.6,230.2c0.4,0.6,37.1-15.5,63.6-50.9c23.2-31.1,28.6-63.4,28.1-63.6c-0.4-0.2-6.3,18.8-22.4,41.2
		c-3.2,4.5-6.2,8.2-8.5,11c-6.6,8.8-8.5,12-15.9,20.4c-2.7,3.1-10.5,12-20.4,21.4C853.6,223.5,843.4,229.9,843.6,230.2z"/>
	<path class="st8" d="M348.4,224.1c-0.4,0.6-38.7-10.7-69.4-42.6c-26.9-27.9-36.2-59.4-35.8-59.7c0.4-0.2,8.6,17.9,27.3,38.1
		c3.7,4,7.1,7.3,9.8,9.9c7.6,7.9,9.9,10.8,18.3,18.3c3.1,2.7,11.9,10.6,22.9,18.7C337.6,218.6,348.6,223.7,348.4,224.1z"/>
	<path class="st7" d="M950.1,404.7c0.1,0.7,39.8,5.6,80.7-11.3c35.8-14.8,56.9-40,56.6-40.4c-0.2-0.3-15,12.9-40.3,24
		c-5.1,2.2-9.5,3.9-13,5.1c-10.2,4.2-13.4,6-24.1,9.4c-3.9,1.3-15.2,5-28.4,8C962.2,403.9,950.1,404.3,950.1,404.7z"/>
	<path class="st7" d="M232.5,388.6c-0.2,0.7-40.1-2.1-77-26.6c-32.3-21.4-48.2-50.1-47.8-50.5c0.3-0.3,12.3,15.6,34.9,31.3
		c4.5,3.1,8.6,5.6,11.7,7.5c9.2,6,12,8.4,21.8,13.9c3.6,2,13.9,7.8,26.4,13.3C220.9,385.6,232.6,388.2,232.5,388.6z"/>
</g>
</svg>
