<?xml version="1.0" encoding="utf-8"?>
<!-- Generator: Adobe Illustrator 24.1.1, SVG Export Plug-In . SVG Version: 6.00 Build 0)  -->
<svg version="1.1" id="Capa_1" xmlns="http://www.w3.org/2000/svg" xmlns:xlink="http://www.w3.org/1999/xlink" x="0px" y="0px"
	 viewBox="0 0 1366 768" style="enable-background:new 0 0 1366 768;" xml:space="preserve">
<style type="text/css">
	.st0{fill:none;}
	.st1{fill:#006837;}
</style>
<path d="M460.43,128.68c-0.7-0.77-1.55-1.38-2.54-1.85l-48.17,169.43L353.39,114h-62.75v11.72h16.06c5.34,0,8.99,0.92,10.96,2.73
	c1.95,1.81,2.92,4.71,2.92,8.65v159.16c0,13.21-2.09,22.41-6.25,27.63c-4.16,5.2-12.06,8.27-23.69,9.2v11.7h71.1v-11.7
	c-8.75-0.64-15.01-2.28-18.79-4.92c-3.79-2.66-6.7-6.46-8.73-11.4c-2.04-4.94-3.06-12.4-3.06-22.39V126.65l67.09,218.13h8.58
	l56.27-197.85v-9.2C463.1,133.66,462.2,130.66,460.43,128.68z"/>
<path class="st0" d="M511.32,333.09h-9.25c-4.24,0-7.27-0.89-9.1-2.66c-1.83-1.77-2.73-4.3-2.73-7.65v-91.74h5.79v90.65
	c0,3.64,1.15,6.46,3.43,8.42C501.76,332.09,505.71,333.09,511.32,333.09z"/>
<path class="st0" d="M510.04,125.72c-5.51,0-9.24,0.98-11.15,2.96c-1.9,1.98-2.85,5.41-2.85,10.29v81h-5.79v-82.23
	c0-4.07,0.77-7.07,2.28-9.05c1.53-1.98,3.77-2.96,6.75-2.96H510.04z"/>
<path d="M597.92,114h-5.53v11.72h6.07L597.92,114z M592.39,333.09v11.7h11.52l0.66-17.92C601.24,330.71,597.19,332.77,592.39,333.09
	z"/>
<path class="st1" d="M595.08,258.8l-2.52,68.05v0.02c-3.32,3.83-7.38,5.9-12.18,6.22v11.7h-54.67v-11.7h5.5
	c31.64,0,49.87-24.76,54.71-74.29H595.08z"/>
<path class="st1" d="M544.9,173.61v106.88h-8.8c-0.42-17.68-3.36-30.34-8.82-37.99c-5.46-7.65-12.91-11.46-22.3-11.46h-8.94v-11.08
	h10.33c8.65,0,15.66-3.81,21.03-11.4c5.38-7.58,8.28-19.24,8.7-34.96H544.9z"/>
<path class="st1" d="M589.48,191.87h-8.54c-3.39-24.54-8.75-41.71-16.09-51.49c-7.34-9.78-16.89-14.66-28.69-14.66h-10.45V114h54.67
	v11.72h6.07L589.48,191.87z"/>
<path class="st1" d="M490.24,137.73v82.23h5.79v11.08h-5.79v91.74c0,3.34,0.9,5.88,2.73,7.65c1.83,1.77,4.85,2.66,9.1,2.66h23.64
	v11.7h-86.25v-11.7h16.13c4.59,0,8.02-1.07,10.23-3.22c2.23-2.13,3.32-4.86,3.32-8.18V125.72l-6.04,21.22v-9.2
	c0-4.07-0.9-7.07-2.68-9.05c-0.7-0.77-1.55-1.38-2.54-1.85l3.65-12.83h64.17v11.72h-26.44c-2.97,0-5.22,0.98-6.75,2.96
	C491.01,130.66,490.24,133.66,490.24,137.73z"/>
<rect x="402.59" y="333.09" class="st0" width="2.87" height="11.7"/>
<path class="st0" d="M427.54,114l-3.65,12.83c-1.58-0.75-3.53-1.11-5.88-1.11h-15.41V114H427.54z"/>
<path class="st0" d="M469.14,125.72v195.98c0,3.32-1.1,6.05-3.32,8.18c-2.21,2.15-5.64,3.22-10.23,3.22h-6.12
	c5.01,0,8.54-1.07,10.58-3.22c2.04-2.13,3.06-5.22,3.06-9.27V146.94L469.14,125.72z"/>
<path d="M725.37,124.31c-10.17,0-19.09,4.05-26.73,12.16c3.22,6.33,4.84,15.53,4.84,27.63v131.21L614.3,114H579v11.72h6.69
	c3.05,0,5.54,0.72,7.47,2.17c1.39,1.04,3.77,4.39,7.09,10.06l1.77,3.03v156.27c0,9.89-2.08,18.22-6.21,25.01
	c-1.05,1.75-2.21,3.28-3.47,4.6v0.02c-3.64,3.83-8.08,5.9-13.33,6.22v11.7h56.4v-11.7c-8.53-0.21-14.84-3.41-18.9-9.61
	c-4.08-6.2-6.1-15.59-6.1-28.19V156.01l92.27,188.78h9.39V161.44c0-7.18,0.97-13.78,2.91-19.81c1.94-6.03,4.23-10.2,6.84-12.48
	c2.53-2.22,6.34-3.37,11.41-3.41C731.22,124.78,728.61,124.31,725.37,124.31z"/>
<path d="M946.91,258.94c-4.84,49.53-23.08,74.29-54.73,74.29h-29.14c-4.23,0-7.27-0.89-9.1-2.66c-1.81-1.77-2.73-4.3-2.73-7.65
	v-91.74h14.73c9.41,0,16.84,3.81,22.3,11.46c5.46,7.65,8.4,20.3,8.84,37.99h8.78V173.74h-8.78c-0.43,15.72-3.32,27.38-8.7,34.96
	c-5.39,7.58-12.4,11.4-21.03,11.4h-16.14v-82.23c0-4.07,0.77-7.07,2.3-9.05c1.53-1.98,3.77-2.96,6.75-2.96h36.9
	c11.78,0,21.34,4.88,28.69,14.66c7.34,9.78,12.7,26.95,16.09,51.49h8.54l-3.57-77.87H823.14l3.69,87.24h-2.75v119.37
	c0,4.05-1.01,7.14-3.06,9.27c-2.04,2.15-5.57,3.22-10.58,3.22h-12.86v11.7h155.31l3.18-85.98H946.91z"/>
<path d="M707.82,333.09v11.7h6.09v-11.7H707.82z"/>
<path class="st1" d="M829.3,201.24v-63.51c0-4.07-0.89-7.07-2.68-9.05c-1.77-1.98-4.58-2.96-8.4-2.96H802.8V114h25.55l3.69,87.24
	H829.3z"/>
<path class="st1" d="M701.65,136.48c-2.26,2.64-4.42,5.71-6.44,9.2c-6.8,11.76-11.67,30.27-14.65,55.56h-9.31l4.09-87.24h10.99
	v11.72c6.4,0.21,11.2,3.22,14.44,9.05C701.07,135.3,701.37,135.88,701.65,136.48z"/>
<path class="st1" d="M733.64,114v11.72c-0.14,0-0.24,0-0.38,0.02h-0.02c-1.84-0.96-4.23-1.43-7.18-1.43
	c-9.29,0-17.43,4.05-24.41,12.16c-0.28-0.6-0.57-1.17-0.87-1.7c-3.24-5.84-8.04-8.84-14.44-9.05V114H733.64z"/>
<path class="st1" d="M829.3,137.73v63.51h-6.04c-5.79-51.28-20.94-76.93-45.45-76.93c-4.94,0-8.33,1.04-10.16,3.11
	c-1.83,2.09-2.75,5.52-2.75,10.31v184.43c0,3.75,0.9,6.5,2.68,8.27c1.79,1.77,4.71,2.66,8.8,2.66h18.98v11.7h-81.45v-11.7h15.57
	c2.89,0,5.1-0.89,6.63-2.66c1.53-1.77,2.3-4.11,2.3-7.01V136.33c0-3.96-0.97-6.95-2.92-8.97c-0.63-0.64-1.36-1.19-2.23-1.62
	c0.14-0.02,0.24-0.02,0.38-0.02V114h69.16v11.72h15.41c3.83,0,6.63,0.98,8.4,2.96C828.41,130.66,829.3,133.66,829.3,137.73z"/>
<path d="M261.78,541.66c-2.24-6.01-5.08-11.36-8.52-16.06c-1.77-2.45-3.72-4.73-5.84-6.84c-4.14-4.01-8.75-7.14-13.85-9.37
	c-3.18-1.38-7.15-2.73-11.93-3.98c-2.89-0.75-6.09-1.49-9.58-2.22c3.67-1.6,6.85-3.13,9.58-4.58c2.28-1.21,4.24-2.36,5.86-3.45
	c3.57-2.43,6.73-5.45,9.53-9.12c7.79-9.91,11.69-22.56,11.69-38.01c0-9.57-1.7-18.17-5.13-25.82c-3.41-7.67-8.25-13.87-14.51-18.58
	c-7.22-5.3-16.32-8.48-27.29-9.54c-2-0.15-5.48-0.26-10.47-0.34c-2.45-0.02-5.25-0.02-8.44-0.02H88v4.07
	c5.5,0.36,9.97,1.3,13.43,2.83c3.48,1.53,6.51,4.01,9.1,7.44c3.08,3.77,5.15,8.54,6.21,14.32c1.06,5.77,1.6,14.74,1.6,26.89v130.32
	c0,12.14-0.54,21.11-1.6,26.89c-1.06,5.77-3.13,10.55-6.21,14.32c-2.59,3.3-5.6,5.75-9.01,7.35c-3.43,1.6-7.93,2.56-13.52,2.92v4.07
	h105.56c14.25,0,25.29-0.94,33.14-2.83c7.85-1.87,14.61-5.24,20.3-10.08c3.5-3.05,6.58-6.65,9.2-10.78c2.1-3.24,3.9-6.82,5.44-10.72
	c3.51-8.88,5.27-18.71,5.27-29.44C266.91,560.66,265.21,550.8,261.78,541.66z M149.95,399.22h13.43c10.3,0,17.99,0.7,23.03,2.11
	c5.06,1.43,9.57,4.07,13.52,7.97c4.52,4.47,8.16,10.76,10.89,18.83c2.75,8.07,4.12,16.6,4.12,25.54c0,8.5-1.32,16.26-3.97,23.26
	c-2.66,7.01-6.44,12.76-11.34,17.24c-2.61,2.24-5.46,4.01-8.59,5.3c-3.13,1.3-7.24,2.43-12.35,3.37
	c-5.86,0.94-11.55,1.41-17.03,1.41h-11.71V399.22z M218.47,614.07c-0.42,0.49-0.85,0.96-1.29,1.43
	c-8.85,9.42-20.68,14.15-35.45,14.15c-11.95,0-20.37-3.96-25.28-11.87c-2.31-3.77-3.97-8.37-4.98-13.78
	c-1.03-5.43-1.53-12.55-1.53-21.41v-72.84h25.85c18.49,0,32.06,4.35,40.72,13.08c1.84,1.85,3.57,4.03,5.11,6.52
	c2.42,3.83,4.45,8.39,6.16,13.72c2.78,8.8,4.17,18.3,4.17,28.57C231.97,589.55,227.48,603.7,218.47,614.07z"/>
<path d="M254.91,606.38c-1.1-5.84-1.65-14.76-1.65-26.8V525.6c-1.77-2.45-3.72-4.73-5.84-6.84c-4.14-4.01-8.75-7.14-13.85-9.37
	c-3.18-1.38-7.15-2.73-11.93-3.98v23.95c2.42,3.83,4.45,8.39,6.16,13.72c2.78,8.8,4.17,18.3,4.17,28.57
	c0,17.92-4.49,32.06-13.5,42.44c-0.42,0.49-0.85,0.96-1.29,1.43c-0.94,1.94-2.05,3.71-3.34,5.28c-2.61,3.3-5.62,5.75-9.03,7.35
	c-3.41,1.6-7.91,2.56-13.5,2.92v4.07h2.24c14.25,0,25.29-0.94,33.14-2.83c7.85-1.87,14.61-5.24,20.3-10.08
	c3.5-3.05,6.58-6.65,9.2-10.78C255.68,609.86,255.26,608.17,254.91,606.38z M213.84,408.06c3.08,3.77,5.15,8.54,6.21,14.32
	c1.06,5.77,1.58,14.74,1.58,26.89v49.34c2.28-1.21,4.24-2.36,5.86-3.45c3.57-2.43,6.73-5.45,9.53-9.12
	c7.79-9.91,11.69-22.56,11.69-38.01c0-9.57-1.7-18.17-5.13-25.82c-3.41-7.67-8.25-13.87-14.51-18.58
	c-7.22-5.3-16.32-8.48-27.29-9.54c-2-0.15-5.48-0.26-10.47-0.34v4.05c5.48,0.36,9.97,1.3,13.43,2.83
	C208.2,402.16,211.23,404.63,213.84,408.06z"/>
<path class="st1" d="M368.26,628.22c-2.26-1.41-4.59-3.94-6.99-7.61c-2.99-4.47-6.66-11.7-11.05-21.67
	c-4.38-9.95-10.85-25.71-19.43-47.3c-3.65-9.44-6.4-16-8.23-19.73c-1.83-3.71-3.84-6.8-6.05-9.27c-2.8-3.2-7.08-6.26-12.86-9.2
	c7.03-1.9,12.63-3.9,16.82-6.01c4.19-2.13,8.02-4.84,11.48-8.14c11.36-11.08,17.03-25.82,17.03-44.21c0-12.38-2.61-23.26-7.86-32.64
	c-5.25-9.37-12.63-16.4-22.16-21.13c-8.47-4.11-20.18-6.6-35.09-7.41c-3.67-0.13-11.32-0.19-22.96-0.19h-69.6v0.02
	c4.99,0.09,8.47,0.19,10.47,0.34c10.98,1.07,20.07,4.24,27.29,9.54c6.26,4.71,11.1,10.91,14.51,18.58
	c3.43,7.65,5.13,16.26,5.13,25.82c0,15.45-3.9,28.1-11.69,38.01c-2.8,3.66-5.97,6.69-9.53,9.12c-1.62,1.09-3.58,2.24-5.86,3.45v6.8
	c4.78,1.26,8.75,2.6,11.93,3.98c5.1,2.24,9.71,5.37,13.85,9.37c2.12,2.11,4.07,4.39,5.84,6.84v-8.61h7.08
	c4.33,0,7.98,0.49,10.98,1.49c2.97,1.02,5.78,2.68,8.37,5.05c5.1,4.71,10.73,13.51,16.89,26.35c6.16,12.97,12.28,27.89,18.33,44.74
	l10.11,28.12c0.68,1.77,2.23,5.9,4.63,12.38h47.94v-4.07C373.64,630.58,370.52,629.65,368.26,628.22z M298.89,500.37
	c-4.52,5.18-9.36,8.61-14.51,10.25c-5.15,1.66-13.71,2.47-25.64,2.47h-5.48V399.22h5.91c10.3,0,18.25,0.79,23.83,2.39
	c5.58,1.58,10.4,4.39,14.44,8.39c5.2,5.3,9.27,12.06,12.19,20.24c2.94,8.2,4.42,16.96,4.42,26.27
	C314.06,473.96,308.99,488.57,298.89,500.37z"/>
<path class="st0" d="M231.97,571.64c0,17.92-4.49,32.06-13.5,42.44c-0.42,0.49-0.85,0.96-1.29,1.43c1.3-2.68,2.26-5.69,2.87-9.03
	c1.06-5.77,1.58-14.74,1.58-26.89v-50.24c2.42,3.83,4.45,8.39,6.16,13.72C230.57,551.87,231.97,561.37,231.97,571.64z"/>
<path class="st0" d="M283.58,631.05v4.07h-90.02c14.25,0,25.29-0.94,33.14-2.83c7.85-1.87,14.61-5.24,20.3-10.08
	c3.5-3.05,6.58-6.65,9.2-10.78c1.17,3.62,2.78,6.73,4.85,9.35c2.61,3.3,5.6,5.75,9.03,7.35
	C273.49,629.73,277.99,630.69,283.58,631.05z"/>
<path d="M397.45,616.37c-1.74-3.41-2.99-7.97-3.76-13.61c-0.77-5.67-1.15-13.38-1.15-23.18V449.26c0-8.14,0.28-15.34,0.87-21.58
	c0.85-8.37,3.17-14.91,6.92-19.62c2.7-3.43,5.76-5.9,9.17-7.44c2.77-1.24,6.21-2.09,10.35-2.56c-1.18-0.13-2.42-0.21-3.72-0.28
	v-4.07H330.6v4.07c5.48,0.36,9.95,1.3,13.43,2.83c3.46,1.53,6.49,4.01,9.1,7.44c3.08,3.77,5.15,8.54,6.21,14.32
	c1.04,5.77,1.58,14.74,1.58,26.89v130.32c0,12.14-0.54,21.11-1.58,26.89c-1.06,5.77-3.13,10.55-6.21,14.32
	c-2.61,3.3-5.62,5.75-9.03,7.35c-3.43,1.6-7.91,2.56-13.5,2.92v4.07h85.53v-4.24c1.22,0,2.4-0.04,3.55-0.15
	c-5.08-0.64-9.27-1.92-12.56-3.83C403.17,624.6,399.96,621.08,397.45,616.37z"/>
<path class="st1" d="M422.87,631.05v4.07h-6.73v-4.24c1.22,0,2.4-0.04,3.55-0.15h0.02C420.73,630.86,421.77,630.97,422.87,631.05z"
	/>
<path class="st1" d="M422.87,393.72v4.07c-1.04,0.06-2.04,0.15-2.99,0.28c0,0,0,0-0.02,0c-1.18-0.13-2.42-0.21-3.72-0.28v-4.07
	H422.87z"/>
<path class="st1" d="M590.42,562.62l-1.86,72.5H422.87v-4.07c-1.1-0.09-2.14-0.19-3.17-0.32c8.02-0.75,14.33-4.07,18.96-9.95
	c2.99-3.77,5.03-8.56,6.14-14.4c1.11-5.84,1.67-14.76,1.67-26.8V449.26c0-12.51-0.61-21.73-1.81-27.67
	c-1.2-5.97-3.44-10.82-6.71-14.59c-2.7-3.07-5.71-5.3-9.03-6.73c-2.49-1.04-5.5-1.79-9.05-2.19c0.96-0.13,1.95-0.21,2.99-0.28v-4.07
	h85.55v4.07c-5.31,0.36-9.64,1.24-12.99,2.66c-3.37,1.41-6.37,3.64-8.96,6.71c-3.27,3.9-5.5,8.78-6.65,14.68
	c-1.15,5.9-1.74,15.04-1.74,27.42v102.03c0,15.68,0.35,27.35,1.03,35.02c0.66,7.67,1.97,13.91,3.9,18.75
	c3.36,8.48,8.37,14.7,15.01,18.64c6.65,3.96,15.45,5.94,26.42,5.94c11.45,0,21.1-1.87,28.95-5.58c7.85-3.71,14.28-9.46,19.27-17.24
	c3.37-5.3,6.14-11.33,8.32-18.04c2.16-6.71,4.16-15.55,5.98-26.52L590.42,562.62z"/>
<path d="M725.57,562.26c-1.83,10.97-3.83,19.81-6,26.52c-2.16,6.71-4.92,12.74-8.3,18.04c-5.01,7.78-11.43,13.53-19.27,17.24
	c-2.91,1.36-6.05,2.49-9.45,3.34c-5.79,1.49-12.28,2.24-19.5,2.24c-7.9,0-14.7-1.02-20.34-3.09c-2.21-0.79-4.23-1.75-6.09-2.85
	c-6.65-3.94-11.65-10.16-15.03-18.64c-1.91-4.84-3.22-11.08-3.9-18.75c-0.68-7.67-1.01-19.34-1.01-35.02V449.26
	c0-12.38,0.57-21.52,1.74-27.42c1.15-5.9,3.36-10.78,6.65-14.68c2.59-3.07,5.57-5.3,8.94-6.71c3.37-1.43,7.71-2.3,12.99-2.66v-4.07
	h-92.27v4.07c5.2,0.23,9.46,1.07,12.79,2.47c3.32,1.43,6.33,3.66,9.01,6.73c3.29,3.77,5.51,8.63,6.71,14.59
	c1.22,5.94,1.81,15.17,1.81,27.67v130.32c0,12.04-0.56,20.96-1.65,26.8c-1.11,5.84-3.17,10.63-6.14,14.4
	c-5.29,6.73-12.8,10.1-22.53,10.1v4.24h172.41l1.88-72.5L725.57,562.26z"/>
<path d="M682.55,627.41c-5.79,1.49-12.28,2.24-19.5,2.24c-7.9,0-14.7-1.02-20.34-3.09c-3.81,2.64-8.23,4.13-13.26,4.5v4.07h64.69
	v-4.07C689.66,630.61,685.78,629.39,682.55,627.41z"/>
<path class="st1" d="M826.98,628.13c-2.97-1.13-5.62-2.75-7.93-4.86c-3.27-3.07-6.31-7.61-9.1-13.61
	c-2.8-6.03-6.54-16.04-11.25-30.08l-31.07-91.93v91.93c0,1.94,0.02,3.77,0.05,5.54l0.68,2.07c2.7,8.14,4.05,14.64,4.05,19.45
	c0,2.62-0.31,5.03-0.92,7.29c1.03,2.58,2.37,4.86,3.95,6.86c2.68,3.43,5.74,5.9,9.17,7.44c3.41,1.53,7.86,2.47,13.34,2.83v4.07
	h42.46v-4.07C834.45,630.22,829.97,629.26,826.98,628.13z M731.39,397.79v-4.07h-3.74l-52.87,166.77
	c-4.8,15.21-8.68,26.61-11.62,34.21c-2.94,7.61-5.95,13.83-9.03,18.66c-3.65,6.01-7.41,10.38-11.25,13.08
	c-0.05,0.04-0.12,0.09-0.17,0.11c5.64,2.07,12.44,3.09,20.34,3.09c7.22,0,13.71-0.75,19.5-2.24c-1.01-0.6-1.95-1.28-2.84-2.02
	c-2.7-2.34-4.84-5.41-6.44-9.18c-1.58-3.77-2.38-7.84-2.38-12.21c0-7.44,2.17-17.62,6.51-30.59l3.6-10.97l7.51-24.39h63.53
	l9.67,29.12v-97L737.5,398.5C735.64,398.18,733.6,397.94,731.39,397.79z M690.83,530.77l28.58-91.59l30.34,91.59H690.83z"/>
<path d="M914.1,399.92c-8.92,0.55-16.47,1.62-22.67,3.2c1.79,1.32,3.46,2.96,5.01,4.94c2.97,3.77,5.03,8.54,6.12,14.32
	c1.11,5.77,1.67,14.74,1.67,26.89v127.68L786.99,393.72h-51.11l1.62,4.77c2.85,0.49,5.32,1.19,7.39,2.13
	c3.41,1.53,6.42,4.01,9.03,7.44c2.97,3.77,5.03,8.56,6.14,14.4c1.1,5.84,1.65,14.72,1.65,26.61v21.09l5.91,17.49v-61.91
	l135.49,208.55v-3.24c2.57-0.17,4.92-0.45,7.03-0.87V449.07c0-11.89,0.56-20.77,1.67-26.61c1.1-5.84,3.15-10.63,6.12-14.4
	c3.37-4.26,7.57-7.2,12.58-8.82C925.34,399.31,919.87,399.54,914.1,399.92z"/>
<path class="st1" d="M767.68,585.12l-1.77-5.35l-4.19-12.61v-97l5.91,17.49v91.93C767.63,581.52,767.65,583.35,767.68,585.12z"/>
<path class="st1" d="M737.5,398.5c-1.86-0.32-3.9-0.55-6.11-0.7v-4.07h4.49L737.5,398.5z"/>
<path class="st1" d="M797.95,631.05v4.07h-52.4v-4.07c8.56-0.94,14.53-2.71,17.9-5.3c4.05-3.13,6.73-7.07,8.04-11.82
	c1.03,2.58,2.37,4.86,3.95,6.86c2.68,3.43,5.74,5.9,9.17,7.44C788.02,629.75,792.47,630.69,797.95,631.05z"/>
<path class="st0" d="M771.49,613.92c-1.3,4.75-3.98,8.69-8.04,11.82c-3.37,2.6-9.34,4.37-17.9,5.3v4.07h-14.16v-4.07
	c5.48-0.36,9.93-1.3,13.36-2.83c3.41-1.53,6.47-4.01,9.17-7.44c2.97-3.77,5.03-8.56,6.14-14.4c1.1-5.84,1.65-14.76,1.65-26.8v-12.42
	l4.19,12.61l1.77,5.35c0.14,9.37,0.68,16.49,1.62,21.35C769.82,609.17,770.53,611.67,771.49,613.92z"/>
<path d="M903.12,634.29v0.83h0.54L903.12,634.29z"/>
<path class="st1" d="M910.15,630.18v4.94h-6.49l-0.54-0.83v-3.24C905.7,630.88,908.05,630.61,910.15,630.18z"/>
<path class="st1" d="M891.43,403.12c-4.09,1-7.58,2.26-10.47,3.71c-7.27,3.64-13.26,9.95-17.99,18.92
	c-4.33,8.24-7.64,19.45-9.95,33.6l-3.32-0.36l2.59-65.25h21.62v4.07c5.48,0.36,9.93,1.3,13.34,2.83
	C888.72,401.29,890.11,402.1,891.43,403.12z"/>
<path class="st1" d="M940.47,393.72v4.07c-3.6,0-6.92,0.47-9.93,1.45h-0.02c-5.18,0.06-10.65,0.3-16.42,0.68
	c-8.92,0.55-16.47,1.62-22.67,3.2c-1.32-1.02-2.71-1.83-4.17-2.49c-3.41-1.53-7.86-2.47-13.34-2.83v-4.07H940.47z"/>
<path class="st1" d="M1047.21,449.26v10.06l-0.26,0.02c-2.61-16.38-6.68-28.8-12.21-37.22c-5.53-8.44-13.59-14.49-24.18-18.13
	c-8.96-3.2-24.11-4.77-45.49-4.77v180.36c0,12.04,0.56,20.96,1.67,26.8c1.1,5.84,3.15,10.63,6.12,14.4c2.7,3.43,5.76,5.9,9.17,7.44
	c3.43,1.53,7.88,2.47,13.36,2.83v4.07h-85.24v-4.94c2.47-0.47,4.63-1.13,6.47-1.96c3.43-1.53,6.47-4.01,9.17-7.44
	c2.99-3.77,5.03-8.54,6.14-14.32c1.11-5.77,1.67-14.74,1.67-26.89V399.22c-1.01,0-2.04,0-3.06,0.02c3.01-0.98,6.33-1.45,9.93-1.45
	v-4.07h76.42v4.07c5.58,0.36,10.09,1.3,13.5,2.83c3.41,1.53,6.44,4.01,9.03,7.44c2.97,3.77,5.03,8.56,6.14,14.4
	C1046.65,428.3,1047.21,437.23,1047.21,449.26z"/>
<path d="M1187.71,564.56c-1.83,10.61-3.83,19.15-6,25.63c-1.36,4.11-2.99,7.93-4.89,11.46c-1.1,2.07-2.28,4.03-3.55,5.88
	c-3.72,5.73-8.28,10.31-13.69,13.78c-1.7,1.09-3.5,2.05-5.38,2.92c-7.79,3.6-17.47,5.41-29.02,5.41c-10.98,0-19.81-1.98-26.51-5.94
	c-6.68-3.94-11.67-10.16-14.94-18.64c-1.91-4.96-3.22-11.12-3.9-18.49c-0.68-7.35-1.01-19.13-1.01-35.28v-40.5h8.23
	c7.13,0,12.99,0.89,17.62,2.66c4.63,1.77,8.37,4.54,11.26,8.31c2.99,3.9,5.32,8.61,7.01,14.15c1.69,5.54,2.96,12.85,3.83,21.92h3.32
	l0.57-94.78l-3.32-0.17c-0.87,9.08-1.95,15.94-3.25,20.6c-1.29,4.67-3.29,8.69-5.98,12.12c-2.8,3.64-6.4,6.18-10.84,7.58
	c-4.42,1.43-11.01,2.13-19.78,2.13h-8.66v-106.1h33.07c10.19,0,18.39,0.85,24.55,2.56c6.16,1.7,11.5,4.62,16.02,8.76
	c5.5,4.94,9.69,10.67,12.58,17.15c1.25,2.81,2.35,5.94,3.29,9.42c0.77-3.73,1.81-7.39,3.08-11.01c0.57-1.62,1.18-3.17,1.86-4.71
	l-1.17-27.65h-124.45l2.61,65.25l-3.06,0.34v120.26c0,12.04-0.56,20.96-1.65,26.8c-1.11,5.84-3.17,10.63-6.14,14.4
	c-2.7,3.43-5.76,5.9-9.17,7.44c-3.43,1.53-7.88,2.47-13.36,2.83v4.07h172.27l0.1-3.96l0.3-10.87l1.48-55.56L1187.71,564.56z"/>
<path class="st1" d="M1047.21,459.32v-10.06c0-12.04-0.56-20.96-1.65-26.8c-1.11-5.84-3.17-10.63-6.14-14.4
	c-2.59-3.43-5.62-5.9-9.03-7.44c-3.41-1.53-7.92-2.47-13.5-2.83v-4.07h30.77l2.61,65.25L1047.21,459.32z"/>
<path d="M1177.69,603.36c-0.3-0.55-0.57-1.13-0.87-1.7c-1.1,2.07-2.28,4.03-3.55,5.88c-3.72,5.73-8.28,10.31-13.69,13.78
	l-0.07,10.97h3.31c1.74-5.67,4.92-8.5,9.53-8.5c1.44,0,2.75,0.23,3.9,0.7c1.17,0.49,4.73,2.3,10.7,5.5c0.77,0.4,1.53,0.79,2.31,1.17
	l0.3-10.87C1185.28,615.82,1181.33,610.18,1177.69,603.36z"/>
<path class="st1" d="M1174.56,452.1l-3.31,0.17c-0.71-5.6-1.67-10.65-2.92-15.17c0.77-3.73,1.81-7.39,3.08-11.01
	c0.57-1.62,1.18-3.17,1.86-4.71L1174.56,452.1z"/>
<path class="st0" d="M1176.83,601.65c-1.1,2.07-2.28,4.03-3.55,5.88c-3.72,5.73-8.28,10.31-13.69,13.78l0.35-62.08l3.32,0.19
	C1167.1,577.05,1171.61,591.11,1176.83,601.65z"/>
<path class="st1" d="M1286,564.9c0,10.82-1.77,21.18-5.34,31.04c-5.01,13.76-12.52,24.39-22.53,31.85
	c-10.02,7.48-21.8,11.21-35.38,11.21c-11.59,0-22.75-2.62-33.49-7.84l0.3-10.87c8.07,8.46,17.33,12.7,27.71,12.7
	c11.06,0,20.21-4.54,27.43-13.61c7.22-9.08,10.84-20.58,10.84-34.49c0-6.01-0.8-12.14-2.38-18.39c-1.6-6.26-3.74-11.61-6.44-16.11
	c-2.78-4.58-6.71-9.01-11.76-13.25c-5.06-4.24-12.79-9.61-23.19-16.11c-9.13-5.65-16.14-10.42-21-14.32
	c-4.87-3.9-8.78-7.84-11.78-11.85c-8.28-11.08-12.42-24.59-12.42-40.5c0-5.88,0.59-11.65,1.76-17.28c1.25,4.52,2.21,9.57,2.92,15.17
	l3.31-0.17l-1.29-30.72c3.01-7.09,6.89-13.29,11.64-18.64c10.21-11.55,22.3-17.32,36.25-17.32c4.52,0,8.72,0.55,12.56,1.68
	c3.84,1.11,9.01,3.32,15.45,6.63c4.82,2.36,8.09,3.86,9.83,4.52c1.72,0.64,3.27,0.96,4.61,0.96c3.37,0,5.64-3,6.8-9.01h3.31
	l1.03,70.2h-3.32c-2.59-11.18-4.84-19.77-6.71-25.71c-1.88-5.97-4.11-11.48-6.7-16.55c-4.71-9.18-9.9-16-15.57-20.41
	c-5.67-4.43-12.21-6.65-19.6-6.65c-10.77,0-19.26,4.5-25.5,13.46c-2.61,3.66-4.64,7.97-6.14,12.91c-1.48,4.96-2.23,9.93-2.23,14.87
	c0,19.73,10.33,35.6,31,47.64l20.34,12.04c15.66,9.08,26.95,19.11,33.87,30.08C1282.05,534.33,1286,548.63,1286,564.9z"/>
</svg>
